<?xml version='1.0' encoding='iso-8859-1'?>
<svg version="1.1" xmlns="http://www.w3.org/2000/svg" viewBox="0 0 489 489" xmlns:xlink="http://www.w3.org/1999/xlink" enable-background="new 0 0 489 489">
  <g>
    <g>
      <path d="m160.2,254.95l-57.2,57.2v27h129v-30.2h-85.3l43.7-43.7c13.5-13.5 22.9-25 28.1-34.3 5.2-8.3 7.3-17.7 7.3-28.1 0-17.7-6.2-31.2-17.7-40.6-11.4-10.4-26-14.6-41.6-14.6s-28.1,3.1-38.5,9.4c-10.4,6.2-18.7,15.6-27,28.1l26,14.6c10.4-15.6 22.9-23.9 38.5-23.9 8.3,0 15.6,3.1 21.8,8.3 6.2,5.2 8.3,11.4 8.3,18.7s-3.1,14.6-8.3,21.8c-5.2,7.4-14.6,17.8-27.1,30.3z"/>
      <polygon points="366.2,341.35 366.2,293.45 389.1,293.45 389.1,264.35 366.2,264.35 366.2,229.95 336,229.95 336,264.35     291.3,264.35 358.9,153.05 324.6,153.05 254.9,265.35 254.9,293.45 336,293.45 336,341.35   "/>
      <path d="M245.5,20.85c55.7,0,109.4,20.5,150.9,58.4l-53.1-4.3l-1,20.8l88.4,7.3l-5.2-91.5l-20.8,1l2.3,49.5    c-45.2-40.4-101.9-62-162.5-62C109.3,0.05,0,109.35,0,244.55h20.8C20.8,120.75,120.7,20.85,245.5,20.85z"/>
      <path d="m468.2,244.45v0.1c0,123.8-99.9,223.7-223.7,223.7-56,0-109.6-21.1-150.8-58.3l52,4.2 1-20.8-88.4-7.3 5.2,91.5 20.8-1-2.3-49.3c44.9,39.8 102.9,61.7 162.5,61.7 135.2,0 244.5-109.2 244.5-244.5l-20.8,0z"/>
    </g>
  </g>
</svg>
